<mxfile host="app.diagrams.net" modified="2024-06-12T00:57:27.332Z" agent="Mozilla/5.0 (Windows NT 10.0; Win64; x64) AppleWebKit/537.36 (KHTML, like Gecko) Chrome/125.0.0.0 Safari/537.36" version="24.5.3" etag="thcp6QYWNOg4YL5EzQv9" type="github">
  <diagram name="Page-1" id="fYU22yZfk-sVQRsat3zJ">
    <mxGraphModel>
      <root>
        <mxCell id="0" />
        <mxCell id="1" parent="0" />
      </root>
    </mxGraphModel>
  </diagram>
</mxfile>
